<svg id="Layer_1" data-name="Layer 1" xmlns="http://www.w3.org/2000/svg" viewBox="0 0 519 119.7"><rect y="0.6" width="2.9" height="118.6"/><path d="M46.49,43.4H62.41c13.42,0,22.7,9.21,22.7,21.23v.12c0,12-9.28,21.35-22.7,21.35H46.49ZM54,50.23v29h8.42c9,0,14.83-6,14.83-14.39v-.13c0-8.35-5.86-14.52-14.83-14.52Z"/><path d="M91.57,70.18v-.12a16.84,16.84,0,0,1,17.2-16.84c9.88,0,17.14,7.51,17.14,16.72v.12a16.84,16.84,0,0,1-17.26,16.78A16.66,16.66,0,0,1,91.57,70.18Zm27,0v-.12c0-5.67-4.08-10.37-9.88-10.37S99,64.33,99,69.94v.12c0,5.61,4.09,10.31,9.82,10.31C114.75,80.37,118.53,75.73,118.53,70.18Z"/><path d="M131.65,70.18v-.12a16.62,16.62,0,0,1,16.77-16.84,16.28,16.28,0,0,1,12.87,5.55l-4.63,4.95c-2.26-2.32-4.64-4-8.3-4-5.37,0-9.33,4.64-9.33,10.25v.12c0,5.73,4,10.31,9.64,10.31,3.47,0,6-1.59,8.35-4l4.46,4.4c-3.18,3.53-6.9,6-13.18,6A16.45,16.45,0,0,1,131.65,70.18Z"/><path d="M167.82,74.39V53.89h7.38V72.2c0,5,2.5,7.8,6.89,7.8s7.26-2.92,7.26-7.93V53.89h7.45V86.1h-7.45v-5c-2.07,3.05-5.06,5.68-10.06,5.68C172,86.78,167.82,81.89,167.82,74.39Z"/><path d="M205.94,53.89h7.45v4.88c2.07-2.86,4.88-5.55,9.82-5.55a10.23,10.23,0,0,1,9.64,5.68,13,13,0,0,1,10.86-5.68c7,0,11.28,4.46,11.28,12.33V86.1h-7.38V67.8c0-5.12-2.38-7.87-6.53-7.87s-6.89,2.81-6.89,8V86.1h-7.38V67.74c0-5-2.44-7.81-6.53-7.81s-6.89,3-6.89,8V86.1h-7.45Z"/><path d="M262.12,70.12V70c0-9.21,6.53-16.78,15.74-16.78,10.25,0,15.44,8.06,15.44,17.33,0,.67-.06,1.34-.12,2.07H269.51c.79,5.25,4.51,8.18,9.27,8.18,3.6,0,6.16-1.34,8.72-3.85l4.33,3.85a16.29,16.29,0,0,1-13.17,6C269.32,86.84,262.12,80.06,262.12,70.12ZM286,67.74c-.49-4.76-3.3-8.48-8.18-8.48-4.51,0-7.68,3.48-8.36,8.48Z"/><path d="M300.68,53.89h7.44v5c2.07-3,5.06-5.62,10.06-5.62,7.26,0,11.47,4.88,11.47,12.33V86.1h-7.38V67.8c0-5-2.5-7.87-6.89-7.87s-7.26,3-7.26,8V86.1h-7.44Z"/><path d="M340.08,77.2v-17H336V53.89h4.09V45.05h7.38v8.84h8.67v6.35h-8.67V76c0,2.87,1.47,4,4,4A9.9,9.9,0,0,0,356,79v6a12.82,12.82,0,0,1-6.65,1.64C343.92,86.65,340.08,84.27,340.08,77.2Z"/><path d="M361.43,76.83v-.12c0-7,5.49-10.37,13.36-10.37a27,27,0,0,1,8.66,1.34v-.79c0-4.58-2.8-7-8-7a22.42,22.42,0,0,0-9.21,2l-2-5.8a27.89,27.89,0,0,1,12.2-2.62c4.82,0,8.42,1.28,10.67,3.6s3.48,5.73,3.48,9.94V86.1h-7.2v-4a13.09,13.09,0,0,1-10.49,4.7C366.86,86.78,361.43,83.3,361.43,76.83Zm22.15-2.32V72.32A20.36,20.36,0,0,0,376.26,71c-4.76,0-7.57,2-7.57,5.36v.13c0,3.11,2.75,4.88,6.28,4.88C379.85,81.41,383.58,78.6,383.58,74.51Z"/><path d="M400.65,77.2v-17h-4.08V53.89h4.08V45.05H408v8.84h8.66v6.35H408V76c0,2.87,1.46,4,4,4A10,10,0,0,0,416.58,79v6a12.85,12.85,0,0,1-6.65,1.64C404.5,86.65,400.65,84.27,400.65,77.2Z"/><path d="M424.32,41.94h7.93v7h-7.93Zm.25,12H432V86.1h-7.44Z"/><path d="M439.88,70.18v-.12a16.84,16.84,0,0,1,17.2-16.84c9.88,0,17.14,7.51,17.14,16.72v.12A16.84,16.84,0,0,1,457,86.84,16.66,16.66,0,0,1,439.88,70.18Zm27,0v-.12c0-5.67-4.09-10.37-9.88-10.37s-9.7,4.64-9.7,10.25v.12c0,5.61,4.09,10.31,9.82,10.31C463.06,80.37,466.84,75.73,466.84,70.18Z"/><path d="M481.66,53.89h7.44v5c2.08-3,5.07-5.62,10.07-5.62,7.26,0,11.47,4.88,11.47,12.33V86.1h-7.38V67.8c0-5-2.5-7.87-6.9-7.87s-7.26,3-7.26,8V86.1h-7.44Z"/></svg>